<?xml version="1.0" encoding="UTF-8" standalone="no"?>
<svg
   viewBox="0 0 24 24"
   version="1.1"
   id="svg1"
   sodipodi:docname="FavoriteBorder.svg"
   inkscape:version="1.4.2 (f4327f4, 2025-05-13)"
   xmlns:inkscape="http://www.inkscape.org/namespaces/inkscape"
   xmlns:sodipodi="http://sodipodi.sourceforge.net/DTD/sodipodi-0.dtd"
   xmlns="http://www.w3.org/2000/svg"
   xmlns:svg="http://www.w3.org/2000/svg">
  <defs
     id="defs1" />
  <sodipodi:namedview
     id="namedview1"
     pagecolor="#505050"
     bordercolor="#ffffff"
     borderopacity="1"
     inkscape:showpageshadow="0"
     inkscape:pageopacity="0"
     inkscape:pagecheckerboard="1"
     inkscape:deskcolor="#505050"
     inkscape:zoom="22.627417"
     inkscape:cx="13.788582"
     inkscape:cy="12.175495"
     inkscape:window-width="1920"
     inkscape:window-height="1017"
     inkscape:window-x="-8"
     inkscape:window-y="-8"
     inkscape:window-maximized="1"
     inkscape:current-layer="svg1" />
  <path
     d="M 16.5,3 C 14.76,3 13.09,3.81 12,5.09 10.91,3.81 9.24,3 7.5,3 4.42,3 2,5.42 2,8.5 c 0,3.78 3.4,6.86 8.55,11.54 L 12,21.35 13.45,20.03 C 18.6,15.36 22,12.28 22,8.5 22,5.42 19.58,3 16.5,3 m -4.4,15.55 -0.1,0.1 -0.1,-0.1 C 7.14,14.24 4,11.39 4,8.5 4,6.5 5.5,5 7.5,5 c 1.54,0 3.04,0.99 3.57,2.36 h 1.87 C 13.46,5.99 14.96,5 16.5,5 c 2,0 3.5,1.5 3.5,3.5 0,2.89 -3.14,5.74 -7.9,10.05"
     id="path1"
     style="display:none" />
  <path
     id="path2-8"
     style="fill:none;stroke:#000000;stroke-width:2;stroke-linecap:butt;stroke-dasharray:12,2;stroke-opacity:1;stroke-dashoffset:6.9;stroke-miterlimit:4"
     d="m 2.9437342,8.4530115 c 0.117791,-4.3582826 4.476074,-4.476074 4.476074,-4.476074 3.7398768,-0.058896 4.5753538,3.3189835 4.5753538,3.3189835 0,0 0.814654,-3.3499087 4.554531,-3.291013 0,0 4.358283,0.1177914 4.476075,4.4760736 0.323922,4.1226994 -9.041017,11.5057904 -9.041017,11.5057904 0,0 -9.6005257,-7.734989 -9.0410168,-11.5337605 z"
     sodipodi:nodetypes="ccccccc" />
</svg>
