<?xml version="1.0" encoding="UTF-8" standalone="no"?>
<!-- Created with Inkscape (http://www.inkscape.org/) -->

<svg
   width="48"
   height="48"
   viewBox="0 0 48 48"
   version="1.1"
   id="svg1"
   xml:space="preserve"
   inkscape:export-filename="wings.svg"
   inkscape:export-xdpi="96"
   inkscape:export-ydpi="96"
   inkscape:version="1.4.2 (f4327f4, 2025-05-13)"
   sodipodi:docname="wings.svg"
   xmlns:inkscape="http://www.inkscape.org/namespaces/inkscape"
   xmlns:sodipodi="http://sodipodi.sourceforge.net/DTD/sodipodi-0.dtd"
   xmlns="http://www.w3.org/2000/svg"
   xmlns:svg="http://www.w3.org/2000/svg"><sodipodi:namedview
     id="namedview1"
     pagecolor="#505050"
     bordercolor="#ffffff"
     borderopacity="1"
     inkscape:showpageshadow="0"
     inkscape:pageopacity="0"
     inkscape:pagecheckerboard="1"
     inkscape:deskcolor="#505050"
     inkscape:document-units="px"
     inkscape:zoom="8.4895833"
     inkscape:cx="-9.4233129"
     inkscape:cy="17.374233"
     inkscape:window-width="1920"
     inkscape:window-height="1017"
     inkscape:window-x="-8"
     inkscape:window-y="-8"
     inkscape:window-maximized="1"
     inkscape:current-layer="layer1" /><defs
     id="defs1"><marker
       markerWidth="0.52499998"
       markerHeight="0.99999994"
       refX="0"
       refY="0"
       orient="auto-start-reverse"
       id="CapTriangle-1"
       viewBox="0 0 0.525 1"
       inkscape:stockid="Triangle cap"
       style="overflow:visible"
       preserveAspectRatio="xMidYMid"
       inkscape:isstock="true"
       inkscape:collect="always"><path
         style="fill:context-stroke;stroke-linecap:butt"
         d="M 0,-1 1,0 0,1 -0.05,0 Z"
         sodipodi:nodetypes="sssssscsss"
         transform="scale(0.5)"
         id="path61-4" /></marker><marker
       markerWidth="0.52499998"
       markerHeight="0.99999994"
       refX="0"
       refY="0"
       orient="auto-start-reverse"
       id="CapTriangle-1-6"
       viewBox="0 0 0.525 1"
       inkscape:stockid="Triangle cap"
       style="overflow:visible"
       preserveAspectRatio="xMidYMid"
       inkscape:isstock="true"
       inkscape:collect="always"><path
         style="fill:context-stroke;stroke-linecap:butt"
         d="M 0,-1 1,0 0,1 -0.05,0 Z"
         sodipodi:nodetypes="sssssscsss"
         transform="scale(0.5)"
         id="path61-4-8" /></marker></defs><g
     inkscape:label="Layer 1"
     inkscape:groupmode="layer"
     id="layer1"><path
       id="path3-5-2"
       style="fill:none;stroke:#000000;stroke-width:1.6199;stroke-linecap:round;stroke-dasharray:none;stroke-opacity:1;marker-start:url(#CapTriangle-1);marker-end:url(#CapTriangle-1)"
       d="m 28.321868,42.905783 c 0,0 -6.836205,5.589057 -9.743902,-11.908629 m 1.7509,7.277711 c 0,0 -7.467896,0.04782 -11.4680417,-16.371961 M 36.673732,42.610077 c -2.890678,2.866605 -8.18029,4.246848 -10.929043,-4.968728 M 20.742678,9.9801809 c 3.131195,5.0086531 9.483349,23.0930601 24.985694,29.9623661 0,0 -5.687748,7.949397 -14.088342,-1.245011 M 10.282804,17.27001 C 8.4576958,16.850397 7.6878864,14.761303 8.2334699,13.10786 9.0209829,10.721211 11.84209,9.7533422 14.094763,10.607788 c 2.974572,1.128262 4.150565,4.670395 2.969009,7.496376 -1.477965,3.534921 -5.788165,4.913123 -9.2134983,3.417211 C 3.7190672,19.717195 2.1292478,14.680967 3.9615902,10.690776 6.1142926,6.0029586 11.93378,4.2107595 16.527295,6.3564208 c 1.731167,0.808641 3.20792,2.1133346 4.23816,3.7145202"
       sodipodi:nodetypes="ccccccccccssssssc" /><path
       id="path3-5-2-6"
       style="fill:none;stroke:#000000;stroke-width:1.6199;stroke-linecap:round;stroke-dasharray:none;stroke-opacity:1;marker-start:url(#CapTriangle-1-6);marker-end:url(#CapTriangle-1-6)"
       d="m 20.042878,43.434096 c 0,0 1.662246,0.627173 3.57433,0.06596 M 35.395529,32.883081 C 37.014948,30.44338 38.621883,26.89558 39.865552,21.736423 M 11.572819,42.570884 c 2.43381,2.401912 6.68825,3.712575 9.641186,-1.488561 M 27.425021,9.9026077 C 26.595235,11.237091 25.539724,13.497551 24.145743,16.2269 M 12.722002,32.80669 c -2.8664834,2.836463 -6.2361624,5.346077 -10.2102391,7.118541 0,0 6.531471,7.523367 14.7920411,-2.398052 M 37.90247,17.167153 c 1.824089,-0.424019 2.588851,-2.514967 2.039276,-4.167086 -0.793275,-2.384741 -3.616711,-3.3457935 -5.867315,-2.485909 -2.971838,1.135442 -4.139272,4.680404 -2.950895,7.503524 1.486499,3.531342 5.800014,4.899129 9.221725,3.394948 4.126836,-1.814151 5.704488,-6.854204 3.862514,-10.839958 C 42.043757,5.8900679 36.219958,4.1119286 31.631639,6.2686778 29.90243,7.0814975 28.428832,8.3897532 27.402462,9.9934226"
       sodipodi:nodetypes="ccccccccccccssssssc" /></g></svg>
